<?xml version="1.0" standalone="no"?>
<!DOCTYPE svg PUBLIC "-//W3C//DTD SVG 20010904//EN"
 "http://www.w3.org/TR/2001/REC-SVG-20010904/DTD/svg10.dtd">
<svg version="1.0" xmlns="http://www.w3.org/2000/svg"
 width="683.000000pt" height="682.000000pt" viewBox="0 0 683.000000 682.000000"
 preserveAspectRatio="xMidYMid meet">

<g transform="translate(0.000000,682.000000) scale(0.100000,-0.100000)"
fill="#000000" stroke="none">
<path d="M4800 6810 c0 -5 -8 -10 -17 -10 -20 -1 -95 -59 -75 -60 6 0 12 -5
12 -11 0 -8 -5 -7 -16 2 -18 15 -31 2 -40 -43 -4 -15 -12 -29 -20 -32 -7 -3
-17 -24 -20 -46 -6 -36 -24 -67 -24 -41 0 22 -16 9 -32 -27 -9 -20 -18 -61
-19 -89 -2 -29 -6 -53 -10 -53 -4 0 -6 -15 -5 -32 1 -23 -3 -32 -12 -30 -8 1
-11 -2 -7 -7 3 -6 12 -8 20 -4 17 6 19 -1 6 -26 -12 -22 1 -44 31 -48 13 -2
24 -7 26 -12 4 -11 111 13 180 40 29 12 56 19 59 15 11 -11 -29 -34 -102 -60
-46 -16 -61 -25 -44 -25 39 -1 156 -81 119 -81 -6 0 -26 11 -44 25 -18 14 -37
25 -42 25 -10 -1 -64 -46 -64 -54 0 -9 74 -56 87 -56 7 0 13 7 13 15 0 8 5 15
10 15 6 0 10 -9 10 -21 0 -11 7 -27 15 -35 8 -8 19 -22 24 -31 8 -15 13 -14
43 9 18 14 76 69 128 122 52 53 100 96 107 96 31 0 16 -25 -75 -120 -53 -56
-97 -107 -97 -114 0 -6 -4 -16 -8 -22 -8 -14 74 -48 147 -60 27 -5 51 -14 53
-20 2 -6 -8 -25 -22 -42 -32 -38 -31 -39 5 -34 44 6 37 -15 -10 -29 -22 -7
-40 -18 -40 -24 0 -18 77 -85 97 -85 13 0 14 -3 5 -12 -10 -10 -17 -10 -32 0
-29 18 -35 15 -15 -8 10 -11 24 -20 32 -20 7 0 16 -7 20 -16 10 -28 73 -84 93
-84 24 0 37 -20 13 -20 -17 -1 -17 -1 1 -15 10 -8 16 -21 13 -28 -3 -9 7 -26
24 -41 16 -14 29 -33 29 -41 0 -7 9 -21 21 -29 12 -8 18 -19 14 -26 -4 -6 1
-17 11 -25 11 -7 16 -17 12 -21 -9 -9 50 -64 68 -64 7 0 16 -5 20 -12 5 -8 2
-9 -12 -4 -40 17 -74 24 -74 17 0 -4 21 -15 48 -23 36 -12 41 -16 21 -17 -15
-1 -26 -7 -26 -16 0 -8 3 -12 7 -10 8 5 21 -5 40 -30 14 -19 14 -19 -3 -6 -27
21 -33 4 -9 -22 12 -13 22 -29 22 -36 0 -6 9 -31 20 -53 11 -23 20 -49 20 -58
0 -9 5 -21 11 -27 16 -16 4 -44 -16 -37 -17 7 -20 -9 -5 -37 12 -21 1 -26 -18
-7 -7 7 -12 40 -12 76 0 54 -6 78 -39 148 -22 46 -56 101 -76 121 -20 21 -43
52 -50 68 -7 17 -23 39 -34 49 -12 11 -21 25 -21 32 0 7 -9 18 -20 24 -11 6
-20 16 -18 23 3 18 -21 57 -36 57 -7 0 -25 9 -38 20 -14 10 -28 17 -31 14 -9
-10 -48 7 -41 17 3 5 14 7 25 4 28 -9 41 2 29 26 -6 10 -16 19 -23 19 -8 0
-26 14 -42 30 -20 21 -35 28 -48 24 -14 -4 -17 -2 -12 6 4 6 -2 21 -13 33 -11
12 -25 32 -31 45 -7 12 -16 20 -20 18 -11 -7 -34 20 -60 72 -12 24 -28 45 -36
49 -8 3 -15 11 -15 17 0 12 -54 66 -65 66 -3 0 -5 -7 -5 -15 0 -8 -3 -15 -7
-15 -13 1 -49 34 -56 53 -3 9 -11 17 -17 17 -6 0 -8 -4 -5 -10 6 -10 -21 -3
-40 10 -5 4 -31 13 -57 21 -27 7 -48 17 -48 21 0 4 -9 12 -20 18 -16 9 -18 8
-14 -5 5 -11 2 -13 -10 -9 -9 3 -16 10 -16 15 0 4 -7 6 -15 3 -8 -4 -15 -2
-15 4 0 5 -18 12 -39 16 -22 3 -48 9 -58 13 -17 6 -16 5 2 -17 14 -16 16 -22
5 -18 -8 2 -19 14 -25 26 -5 12 -13 22 -18 22 -4 0 -6 -4 -3 -9 3 -4 -7 -6
-22 -3 -26 4 -26 4 -7 -12 18 -13 18 -15 3 -16 -10 0 -26 9 -36 20 -23 24 -85
45 -90 30 -2 -5 -15 -10 -30 -10 -26 0 -46 5 -140 35 -29 10 -56 15 -59 11 -4
-3 1 -6 9 -6 22 0 50 -61 36 -77 -6 -7 -14 -10 -19 -7 -5 3 -9 0 -9 -6 0 -7 8
-9 20 -5 14 4 20 2 20 -8 0 -26 -25 -26 -54 0 -28 23 -28 24 -7 30 21 5 30 23
12 23 -5 0 -16 3 -25 6 -11 4 -16 1 -16 -11 0 -9 -6 -15 -12 -12 -7 2 -13 9
-13 15 0 19 -14 25 -21 8 -6 -15 -7 -15 -19 1 -10 13 -16 15 -26 6 -20 -15
-79 -13 -79 4 0 7 -8 13 -17 13 -13 0 -14 -3 -5 -12 7 -7 12 -16 12 -20 0 -9
-50 20 -63 37 -5 5 -6 0 -2 -12 5 -18 2 -20 -14 -16 -11 3 -27 13 -36 23 -10
11 -24 16 -37 12 -14 -3 -19 -1 -14 6 3 6 -3 14 -16 18 -13 4 -24 2 -26 -5 -6
-19 -30 -12 -34 10 -3 21 -5 20 -35 -11 -26 -27 -34 -30 -50 -21 -16 11 -16
11 5 6 16 -5 22 -2 22 10 0 12 -6 15 -22 9 -13 -3 -23 -7 -23 -8 0 -10 -25
-41 -36 -44 -11 -4 -12 -2 -1 9 6 7 12 18 12 24 0 7 -18 -5 -40 -26 -26 -25
-51 -39 -72 -41 -18 -2 -32 -8 -31 -14 1 -7 -8 -9 -22 -6 -45 8 -182 -75 -171
-104 3 -8 -1 -14 -10 -14 -36 0 -184 -74 -184 -92 0 -7 -5 -6 -14 1 -11 10
-15 8 -19 -6 -4 -17 -5 -17 -6 1 -1 11 -6 16 -15 13 -8 -3 -17 0 -19 7 -3 9
-15 12 -31 9 -28 -6 -34 -18 -13 -26 6 -3 -2 -6 -20 -6 -26 -1 -31 2 -26 15 4
12 2 15 -8 12 -7 -2 -21 -26 -29 -51 -8 -26 -20 -47 -27 -47 -6 0 -17 -13 -25
-30 -7 -16 -19 -30 -25 -30 -7 0 -12 -3 -12 -7 3 -21 -3 -33 -20 -43 -16 -8
-19 -7 -17 7 2 9 8 19 14 21 7 2 12 8 12 14 0 6 -9 3 -20 -7 -11 -10 -17 -22
-13 -28 4 -6 0 -8 -10 -4 -10 3 -17 2 -17 -3 0 -6 5 -10 11 -10 24 0 -6 -21
-49 -34 -27 -8 -46 -19 -44 -26 2 -8 -3 -10 -13 -6 -9 3 -19 6 -21 6 -2 0 -4
9 -4 19 0 10 -8 22 -17 25 -13 6 -14 9 -5 15 8 4 15 19 17 32 1 13 7 44 13 69
6 24 9 46 7 48 -5 5 -30 -71 -27 -82 5 -15 -21 -26 -35 -14 -10 8 -13 5 -13
-11 0 -12 -6 -21 -15 -21 -8 0 -15 4 -15 10 0 5 -7 7 -15 4 -8 -4 -15 -12 -15
-20 0 -17 -27 -19 -33 -1 -4 10 -6 10 -6 0 -1 -7 -8 -13 -16 -13 -12 0 -13 -4
-5 -19 18 -34 12 -79 -11 -92 -17 -8 -23 -8 -29 2 -6 9 -12 8 -25 -5 -22 -21
-13 -46 14 -39 23 6 46 -30 35 -55 -4 -9 -6 -27 -5 -39 1 -12 -3 -31 -9 -42
-13 -26 -2 -28 16 -3 13 15 13 14 9 -15 -4 -23 -1 -35 11 -41 20 -11 10 -34
-11 -25 -9 3 -31 2 -50 -1 -31 -6 -33 -9 -23 -26 7 -10 22 -21 35 -25 13 -3
23 -9 23 -15 0 -11 -39 -24 -47 -16 -4 3 0 6 8 6 12 0 12 2 0 9 -20 13 -66
-35 -52 -53 14 -17 -6 -36 -38 -37 -15 0 -20 -3 -13 -6 23 -9 12 -21 -26 -28
-53 -9 -76 -25 -37 -25 l30 -1 -24 -20 c-18 -14 -21 -23 -13 -28 8 -5 1 -17
-23 -37 -42 -35 -44 -47 -7 -38 15 4 24 3 20 -1 -4 -4 0 -14 10 -21 16 -12 16
-14 -5 -31 -12 -11 -21 -27 -20 -38 1 -12 -7 -21 -23 -25 -22 -6 -23 -8 -7
-15 11 -4 16 -14 12 -22 -3 -11 -1 -13 10 -9 17 6 21 -9 5 -19 -18 -11 -12
-46 8 -43 22 4 20 -5 -28 -103 -22 -45 -40 -86 -40 -91 0 -6 -9 -23 -21 -39
l-20 -29 50 -103 c28 -56 51 -110 51 -119 0 -29 40 -125 85 -206 23 -42 52
-111 64 -152 11 -41 28 -101 37 -132 8 -32 18 -58 21 -58 3 0 2 54 -2 120 l-7
119 59 -3 c32 -1 64 -1 71 2 19 7 14 21 -6 16 -9 -3 -28 0 -42 6 -25 10 -25
10 3 5 15 -3 33 -2 40 2 6 4 32 6 56 4 44 -3 45 -2 29 16 -13 14 -14 20 -4 30
8 7 18 8 27 2 19 -12 42 -11 34 1 -7 11 27 1 35 -11 3 -4 25 -14 50 -23 l45
-17 -49 6 c-45 5 -48 3 -43 -15 4 -15 0 -20 -14 -20 -10 0 -19 -4 -19 -9 0 -5
-14 -12 -31 -16 -19 -4 -37 -18 -49 -38 -10 -18 -23 -37 -28 -43 -18 -20 -24
-54 -11 -54 10 0 10 -3 1 -12 -7 -7 -12 -29 -12 -50 0 -23 -5 -38 -12 -38 -8
0 -7 -6 4 -16 14 -15 19 -15 53 2 33 15 65 19 127 14 9 -1 19 -8 22 -16 3 -9
11 -12 16 -9 6 4 17 1 25 -5 8 -6 19 -9 24 -6 5 4 16 -3 24 -14 12 -18 19 -19
60 -11 52 9 56 -3 4 -14 -17 -4 -36 -11 -42 -15 -5 -4 -27 -10 -47 -14 -43 -8
-60 -26 -26 -27 116 -2 168 -15 168 -40 0 -6 -13 -16 -29 -22 -16 -6 -35 -21
-43 -35 -14 -22 -16 -22 -31 -8 -20 20 -27 20 -27 1 0 -8 5 -15 10 -15 6 0 10
-4 10 -10 0 -5 -7 -10 -15 -10 -8 0 -15 -5 -15 -11 0 -7 9 -9 23 -5 12 4 27 8
33 9 6 2 24 11 40 22 42 28 85 52 117 65 15 7 27 18 27 25 0 8 9 17 20 20 11
3 20 13 20 21 0 8 3 14 8 14 8 0 37 46 70 115 17 36 22 60 18 85 -4 24 -3 30
4 20 8 -12 10 -11 10 7 0 25 -16 39 -23 21 -3 -7 -6 -4 -6 6 -1 11 -9 28 -19
39 -16 19 -16 20 1 14 18 -7 25 17 7 28 -5 3 -10 17 -10 30 0 13 -8 30 -19 37
-13 10 -17 21 -14 46 6 35 19 42 26 15 3 -10 5 -2 6 17 1 19 4 45 7 58 4 13 2
22 -5 22 -6 0 -11 -7 -11 -15 0 -24 -20 -17 -21 8 -1 21 -1 21 -9 -3 -8 -25
-8 -25 -9 -2 -1 13 -5 20 -11 17 -6 -3 -10 5 -10 19 0 14 -5 28 -11 32 -8 5
-6 10 5 16 22 12 20 27 -2 21 -10 -2 -24 3 -31 11 -10 12 -18 13 -33 5 -16 -8
-23 -7 -34 8 -12 17 -13 16 -14 -12 0 -22 -3 -26 -9 -15 -6 8 -7 18 -4 24 4 5
1 6 -6 2 -8 -5 -23 4 -40 23 -32 36 -45 40 -36 11 5 -16 3 -19 -12 -13 -10 3
-28 13 -41 21 -19 13 -22 13 -20 1 2 -9 -4 -13 -14 -11 -13 2 -16 -2 -11 -14
5 -15 1 -16 -31 -11 -26 4 -46 1 -61 -9 -15 -10 -43 -15 -77 -14 -61 3 -98 -8
-76 -21 10 -7 8 -12 -11 -25 -18 -13 -20 -18 -10 -26 10 -6 7 -7 -8 -3 -14 4
-23 2 -23 -4 0 -6 5 -11 10 -11 6 0 10 -4 10 -10 0 -5 -15 -10 -34 -10 -19 0
-36 -6 -39 -12 -13 -36 -18 19 -20 198 -1 110 0 210 2 224 8 58 24 137 34 160
5 14 11 32 12 40 5 27 30 85 43 98 6 7 12 17 12 22 0 5 6 15 13 22 6 7 21 30
32 51 11 21 35 56 52 77 18 21 33 45 33 54 0 9 6 16 14 16 8 0 17 7 20 16 5
14 16 16 69 9 133 -17 188 -9 280 42 16 8 40 13 55 10 15 -3 45 -1 67 4 32 8
50 7 85 -6 25 -9 65 -20 90 -25 58 -11 189 8 213 31 23 21 68 33 76 21 5 -8
27 -15 81 -26 8 -2 28 -8 43 -15 16 -6 37 -11 47 -11 10 0 20 -7 24 -15 3 -8
12 -15 21 -15 18 0 20 -16 3 -23 -7 -2 -1 -8 15 -12 28 -7 35 -19 17 -30 -5
-3 -10 -11 -10 -16 0 -6 10 -3 22 5 30 21 33 21 68 -14 20 -20 41 -30 60 -30
23 0 30 -4 30 -20 0 -15 7 -20 29 -20 30 0 54 -21 33 -28 -22 -7 -12 -24 11
-19 12 3 31 1 42 -3 17 -7 17 -9 3 -9 -22 -1 -24 -31 -3 -31 16 0 21 -26 6
-32 -4 -1 -5 -12 0 -23 6 -17 8 -17 8 -2 1 9 8 17 17 17 12 0 15 -9 13 -42 -1
-24 1 -53 5 -65 8 -25 42 -31 48 -11 3 8 9 4 17 -10 10 -18 9 -25 -4 -38 -8
-8 -15 -11 -15 -5 0 6 -12 11 -26 11 -29 0 -29 -23 1 -29 22 -4 45 -25 45 -40
0 -6 -21 -11 -50 -11 -38 0 -50 4 -50 15 0 8 -4 15 -10 15 -5 0 -10 -7 -10
-15 0 -8 -9 -15 -20 -15 -25 0 -27 30 -2 30 16 1 16 1 0 14 -10 7 -18 18 -18
25 0 6 -4 11 -10 11 -14 0 -12 -27 3 -34 10 -5 10 -7 0 -12 -7 -3 -13 -12 -13
-20 0 -8 -7 -14 -15 -14 -8 0 -15 5 -15 10 0 6 -5 10 -11 10 -6 0 -8 -8 -4
-19 4 -14 0 -23 -14 -31 -18 -9 -19 -14 -8 -30 6 -11 20 -20 29 -20 10 0 18
-4 18 -10 0 -5 -6 -10 -14 -10 -8 0 -18 5 -21 10 -10 17 -45 12 -39 -5 4 -8 1
-15 -4 -15 -6 0 -23 -11 -38 -25 l-27 -25 24 -1 c22 0 23 -1 4 -9 -11 -5 -14
-9 -7 -9 7 -1 10 -5 7 -11 -10 -16 -25 -12 -25 8 0 13 -5 10 -18 -10 -13 -20
-22 -24 -32 -18 -22 14 -30 12 -30 -9 0 -13 -10 -20 -32 -25 -17 -3 -46 -18
-65 -32 -18 -14 -38 -24 -44 -22 -6 2 10 17 35 33 65 41 39 44 -30 3 -30 -18
-67 -39 -81 -46 -20 -11 -24 -19 -19 -40 3 -15 3 -21 -1 -13 -4 11 -10 8 -25
-10 l-19 -24 5 33 c3 17 9 47 12 65 5 30 5 31 -9 12 -8 -11 -18 -31 -22 -44
-5 -18 -9 -20 -16 -10 -6 10 -9 3 -10 -21 -1 -19 -1 -38 0 -42 2 -14 -12 -8
-37 15 l-25 22 7 -29 c8 -34 -22 -116 -42 -116 -8 0 -16 -9 -19 -20 -3 -11 -9
-20 -14 -20 -5 0 -8 -21 -7 -47 2 -63 -10 -145 -22 -157 -6 -6 -10 -22 -10
-37 0 -15 -6 -32 -13 -38 -8 -6 -13 -21 -12 -33 1 -13 -5 -28 -14 -34 -12 -10
-13 -15 -3 -27 10 -12 10 -18 -3 -30 -8 -9 -15 -20 -15 -25 0 -6 -7 -13 -15
-16 -12 -4 -15 -18 -13 -58 3 -48 1 -53 -20 -56 -19 -3 -20 -5 -7 -18 11 -12
12 -19 3 -34 -9 -14 -9 -22 2 -35 12 -15 12 -16 -6 -13 -20 3 -21 -3 -8 -72 4
-19 11 -40 16 -47 5 -7 5 -14 -1 -17 -6 -4 -6 -18 -1 -37 5 -17 8 -36 7 -43
-1 -6 5 -10 15 -10 9 1 19 -7 21 -17 3 -11 1 -16 -5 -13 -6 4 -8 -1 -3 -15 5
-16 3 -20 -9 -15 -11 4 -13 0 -9 -15 6 -22 -11 -29 -23 -10 -4 7 -29 -12 -67
-52 -33 -35 -58 -56 -54 -47 4 12 -1 23 -16 33 -31 21 -40 19 -33 -10 5 -19 3
-23 -9 -19 -19 8 -19 3 -1 -32 11 -19 12 -33 5 -46 -8 -15 -6 -18 14 -18 28 0
47 -17 47 -42 0 -22 23 -24 43 -4 11 11 17 12 26 3 8 -8 11 -8 11 2 0 7 4 10
9 7 4 -3 6 -17 3 -32 -2 -14 0 -29 7 -33 13 -8 16 -46 6 -78 -5 -16 -3 -25 9
-29 9 -3 16 -12 16 -19 0 -12 -114 -32 -148 -26 -8 1 -19 -3 -26 -9 -8 -5 -21
-8 -30 -4 -9 4 -18 0 -22 -9 -7 -18 -94 -41 -130 -34 -37 7 -60 -34 -56 -101
l4 -51 41 4 c71 6 89 15 84 41 -2 15 1 24 8 24 24 0 74 -32 80 -51 4 -11 14
-19 23 -18 9 2 33 -6 52 -16 40 -22 94 -44 128 -52 12 -3 22 -9 22 -13 0 -4
14 -10 32 -14 24 -5 36 -1 50 14 10 11 23 20 28 20 17 0 20 -18 5 -30 -8 -7
-15 -23 -15 -36 0 -20 -5 -24 -30 -24 -28 0 -35 -8 -31 -37 1 -7 -5 -13 -12
-13 -8 0 -21 -8 -28 -17 -8 -9 -9 -14 -4 -11 6 4 17 3 25 -3 12 -7 12 -9 -4
-9 -15 0 -17 -5 -12 -26 6 -22 4 -25 -13 -19 -14 4 -23 0 -31 -15 -6 -12 -9
-24 -6 -28 3 -3 6 0 6 6 0 7 14 12 30 12 33 0 38 -14 15 -44 -20 -26 -19 -36
3 -36 21 0 46 -36 32 -45 -14 -9 -12 -25 3 -20 6 2 23 -10 36 -26 22 -29 23
-33 10 -62 -18 -40 -14 -79 8 -75 9 2 21 17 26 33 6 17 14 33 19 36 5 3 3 9
-6 12 -22 9 -20 27 3 27 11 0 21 4 23 9 2 4 12 5 23 0 19 -7 19 -8 -2 -8 -16
-1 -23 -7 -23 -21 0 -14 7 -20 23 -21 16 -1 18 -2 5 -6 -10 -2 -18 -12 -18
-22 0 -23 -35 -51 -65 -51 -13 0 -30 -8 -37 -17 -7 -10 -24 -19 -38 -21 -14
-1 -27 -7 -28 -12 -2 -6 -8 -7 -13 -4 -6 3 -22 3 -37 -1 l-27 -7 30 -14 c18
-8 21 -12 8 -8 -13 3 -23 1 -23 -5 0 -20 -19 -11 -22 11 -4 31 -28 35 -28 4 0
-23 -3 -24 -37 -19 -21 3 -45 11 -53 17 -8 5 -12 6 -8 2 4 -5 3 -15 -3 -22 -8
-10 -5 -16 10 -26 12 -7 21 -18 21 -24 0 -5 12 -19 27 -30 67 -48 158 -74 261
-74 54 0 57 -1 107 -53 28 -30 60 -65 71 -79 11 -14 34 -33 51 -42 18 -9 38
-25 46 -37 11 -15 16 -17 20 -7 4 8 6 7 6 -5 1 -10 12 -22 26 -27 14 -5 25
-16 25 -23 0 -23 39 -57 65 -57 22 0 25 -4 27 -42 2 -50 1 -71 -8 -118 -7 -41
-8 -60 -4 -119 3 -33 -1 -46 -14 -53 -17 -10 -16 -30 6 -75 8 -17 8 -26 -2
-38 -8 -10 -9 -15 -1 -15 6 0 11 -5 11 -10 0 -6 13 -24 30 -40 16 -16 32 -40
36 -54 3 -14 12 -26 19 -26 8 0 20 -6 27 -13 20 -20 65 -29 71 -14 2 7 8 8 13
3 5 -5 4 -11 -3 -13 -18 -6 -16 -23 2 -23 8 0 15 -4 15 -10 0 -5 13 -10 29
-10 16 0 34 -7 41 -15 10 -12 10 -15 -4 -15 -18 0 -21 -11 -6 -26 12 -12 2
-47 -10 -39 -5 3 -16 -5 -24 -17 -9 -12 -26 -28 -38 -35 -13 -7 -17 -12 -10
-13 6 0 12 -4 12 -9 0 -6 -12 -9 -27 -8 -19 1 -28 -3 -31 -16 -3 -15 0 -18 17
-12 15 4 21 2 21 -8 0 -9 -5 -17 -12 -19 -24 -8 3 -27 31 -22 23 5 30 2 36
-15 3 -12 11 -21 16 -21 5 0 9 -8 9 -17 1 -16 2 -16 13 -2 7 9 24 19 40 23 21
5 27 3 27 -9 0 -12 -6 -15 -20 -10 -16 5 -20 2 -20 -14 0 -23 35 -30 42 -9 3
7 7 6 11 -5 5 -12 1 -17 -13 -17 -13 0 -20 -7 -20 -20 0 -11 -7 -23 -15 -26
-27 -11 -16 -21 28 -29 34 -6 38 -8 22 -15 -11 -5 654 -9 1478 -9 l1497 -1 0
3410 0 3410 -219 0 -219 0 -6 -102 c-3 -57 -13 -301 -22 -543 -8 -242 -18
-456 -21 -475 -3 -25 -18 -48 -51 -79 l-46 -44 23 -39 c13 -23 25 -64 28 -96
3 -32 11 -70 18 -87 23 -52 27 -82 14 -106 -19 -36 -33 -47 -77 -58 -23 -7
-44 -15 -46 -20 -9 -14 -65 -21 -91 -11 -41 16 -53 54 -53 182 l-1 118 34 49
c28 40 32 52 21 58 -8 4 -23 24 -34 43 -19 34 -20 59 -27 623 l-7 587 -464 0
c-406 0 -464 -2 -464 -15 0 -11 -11 -15 -40 -15 -25 0 -40 -5 -41 -12 0 -7 -5
-1 -11 15 l-10 27 -109 0 c-66 0 -109 -4 -109 -10z m-1260 -700 c0 -5 -2 -10
-4 -10 -3 0 -8 5 -11 10 -3 6 -1 10 4 10 6 0 11 -4 11 -10z m65 -40 c3 -6 -1
-7 -9 -4 -18 7 -21 14 -7 14 6 0 13 -4 16 -10z m455 -10 c0 -5 -4 -10 -10 -10
-5 0 -10 5 -10 10 0 6 5 10 10 10 6 0 10 -4 10 -10z m-110 -112 c0 -5 10 -7
23 -3 19 5 20 5 4 -5 -14 -9 -24 -8 -43 4 -29 20 -31 26 -4 19 11 -3 20 -10
20 -15z m-890 -22 c0 -2 -7 -7 -16 -10 -8 -3 -12 -2 -9 4 6 10 25 14 25 6z
m1740 -51 c0 -9 -9 -25 -20 -37 -22 -24 -26 -14 -10 26 10 28 30 35 30 11z
m320 -335 c0 -12 -37 -12 -65 0 -15 7 -10 9 23 9 23 1 42 -3 42 -9z m-2897
-50 c3 -11 1 -20 -4 -20 -5 0 -9 2 -9 4 0 2 -3 11 -6 20 -3 9 -2 16 4 16 5 0
12 -9 15 -20z m852 -410 c-3 -5 -12 -7 -20 -3 -21 7 -19 13 6 13 11 0 18 -4
14 -10z m2441 -266 c15 -21 15 -27 4 -34 -10 -6 -19 -2 -29 13 -11 15 -12 22
-3 25 7 2 10 8 6 13 -13 22 7 6 22 -17z m23 -146 c5 -13 5 -24 0 -26 -15 -6
-10 -34 8 -47 14 -10 15 -16 5 -27 -12 -16 -7 -43 22 -110 20 -46 20 -54 1
-38 -8 7 -15 19 -15 27 0 7 -6 16 -13 19 -9 3 -14 24 -15 59 -1 31 -6 64 -12
74 -13 25 -13 91 0 91 6 0 14 -10 19 -22z m-1771 -206 c2 -7 -3 -12 -12 -12
-9 0 -16 7 -16 16 0 17 22 14 28 -4z m1789 -77 c1 -30 -1 -55 -5 -55 -16 0
-31 57 -25 93 8 54 27 31 30 -38z m-18 -155 c0 -18 -2 -21 -8 -11 -5 7 -13 11
-19 7 -6 -4 -7 7 -1 32 5 20 9 42 10 47 2 15 16 -46 18 -75z m-1949 30 c-8 -5
-22 -9 -30 -9 -10 0 -8 3 5 9 27 12 43 12 25 0z m-270 -106 c0 -8 -4 -14 -10
-14 -5 0 -10 9 -10 21 0 11 5 17 10 14 6 -3 10 -13 10 -21z m2173 -44 c-7 -28
-13 -25 -13 6 0 14 4 23 9 20 5 -3 7 -15 4 -26z m737 -20 c44 -24 75 -111 48
-138 -9 -9 -8 -24 1 -64 18 -77 11 -293 -11 -336 -18 -36 -16 -68 8 -137 36
-101 -2 -345 -64 -407 -50 -50 -111 15 -123 131 -15 139 -11 328 7 363 12 24
14 42 8 77 -15 87 -8 231 15 299 14 39 20 82 19 117 -2 45 2 58 22 80 25 27
41 31 70 15z m-4100 -106 c0 -2 -7 -4 -15 -4 -8 0 -15 4 -15 10 0 5 7 7 15 4
8 -4 15 -8 15 -10z m0 -39 c-7 -8 -16 -15 -21 -15 -5 0 -9 7 -9 15 0 9 9 15
21 15 18 0 19 -2 9 -15z m-10 -45 c0 -5 -4 -10 -10 -10 -5 0 -10 5 -10 10 0 6
5 10 10 10 6 0 10 -4 10 -10z m260 -119 c0 -9 -44 -41 -57 -41 -9 0 39 49 50
49 4 1 7 -3 7 -8z m3152 -15 c3 3 9 1 13 -5 3 -6 -1 -11 -10 -11 -12 0 -15 -5
-9 -22 10 -31 6 -131 -6 -138 -5 -3 -11 -17 -13 -30 -2 -14 -11 -41 -20 -61
-9 -20 -16 -57 -15 -81 1 -60 -12 -150 -24 -165 -5 -7 -7 -21 -3 -33 4 -11 2
-20 -4 -20 -6 0 -11 -8 -11 -17 0 -10 -12 -38 -25 -63 -14 -25 -30 -57 -36
-72 -6 -16 -15 -28 -19 -28 -5 0 -16 -3 -25 -6 -12 -5 -9 6 12 42 64 109 83
176 108 366 9 77 22 132 36 160 24 46 29 108 16 173 -9 39 -8 39 10 22 11 -9
22 -14 25 -11z m-1885 -6 c10 -13 8 -16 -8 -17 -10 -1 -19 4 -19 11 0 11 12
30 14 24 1 -2 7 -10 13 -18z m-1157 -39 c0 -16 3 -36 6 -45 7 -19 -14 -21 -51
-4 -33 15 -32 44 3 62 38 21 42 20 42 -13z m1048 -481 c-13 -21 -48 -28 -48
-10 0 6 7 10 15 10 8 0 15 5 15 10 0 6 7 10 15 10 13 0 13 -3 3 -20z m62 1 c0
-5 -7 -12 -16 -15 -9 -4 -14 -10 -10 -14 12 -11 60 -8 74 6 7 6 27 12 43 12
24 0 29 -4 29 -25 0 -14 5 -25 10 -25 6 0 17 -18 26 -40 19 -46 27 -49 42 -15
9 19 8 27 -4 40 -9 8 -21 12 -27 9 -7 -4 -5 1 4 10 14 15 19 16 38 4 11 -7 21
-22 22 -33 0 -11 3 -15 5 -9 3 7 13 10 22 7 27 -7 17 -80 -11 -89 -12 -4 -26
-13 -32 -20 -12 -14 -60 0 -51 15 3 5 -3 7 -14 4 -26 -7 -27 22 -2 36 9 6 12
11 5 11 -6 0 -15 -4 -18 -10 -3 -5 -17 -10 -31 -10 -37 0 -29 -15 16 -30 22
-7 40 -17 40 -22 0 -12 -5 -10 -49 12 -33 18 -40 27 -43 58 -3 20 -8 45 -13
55 -6 14 -3 20 13 24 22 5 39 33 21 33 -6 0 -23 -9 -38 -20 -15 -10 -36 -19
-47 -18 -10 0 -26 -1 -34 -3 -21 -6 -25 35 -5 55 18 18 35 21 35 7z m365 -85
c20 -8 20 -8 1 -15 -14 -5 -16 -10 -8 -15 9 -5 3 -16 -19 -37 -17 -16 -36 -29
-42 -29 -6 0 -1 9 12 21 13 13 20 27 16 37 -3 8 -1 19 6 22 8 6 8 9 0 14 -6 4
-11 2 -11 -3 0 -6 -4 -11 -9 -11 -12 0 -9 33 4 42 6 4 15 2 20 -5 6 -7 19 -17
30 -21z m-45 -46 c0 -5 -4 -10 -10 -10 -5 0 -10 5 -10 10 0 6 5 10 10 10 6 0
10 -4 10 -10z m-65 -79 c3 -5 1 -12 -5 -16 -5 -3 -10 1 -10 9 0 18 6 21 15 7z
m1450 -41 c-3 -5 -11 -10 -16 -10 -6 0 -7 5 -4 10 3 6 11 10 16 10 6 0 7 -4 4
-10z m950 -110 c30 -12 47 -49 47 -110 0 -54 -18 -70 -79 -70 -38 0 -46 4 -63
33 -11 17 -20 40 -20 50 0 30 29 76 58 91 33 19 26 18 57 6z m-2326 -333 c0
-27 -2 -29 -9 -12 -12 28 -12 57 0 50 6 -3 10 -21 9 -38z m11 -63 c0 -8 -4
-13 -9 -10 -5 4 -12 0 -14 -6 -3 -7 -6 -3 -6 10 -1 13 5 22 14 22 8 0 15 -7
15 -16z m2275 -36 c25 -61 29 -126 10 -167 -31 -71 -83 -82 -127 -27 -67 81
-22 226 69 226 29 0 36 -5 48 -32z m-5 -451 c0 -13 9 -59 20 -102 27 -107 13
-156 -52 -170 -59 -13 -118 35 -118 98 0 26 34 75 79 116 17 15 28 31 24 34
-7 8 25 47 39 47 4 0 8 -11 8 -23z m-210 -797 c0 -13 -11 -13 -30 0 -12 8 -11
10 8 10 12 0 22 -4 22 -10z m-2388 -652 c-6 -6 -16 -7 -22 -3 -9 6 -9 9 1 16
17 10 34 0 21 -13z m308 -108 c0 -5 -4 -10 -10 -10 -5 0 -10 5 -10 10 0 6 5
10 10 10 6 0 10 -4 10 -10z m-63 -16 c-3 -3 -12 -4 -19 -1 -8 3 -5 6 6 6 11 1
17 -2 13 -5z m263 -4 c0 -5 -7 -10 -16 -10 -8 0 -12 5 -9 10 3 6 10 10 16 10
5 0 9 -4 9 -10z m-30 -80 c0 -5 -5 -10 -11 -10 -5 0 -7 5 -4 10 3 6 8 10 11
10 2 0 4 -4 4 -10z m31 -134 c-7 -8 -19 -12 -27 -9 -8 3 -14 0 -14 -6 0 -6
-13 -11 -30 -11 -35 0 -36 -4 -10 -37 11 -14 20 -32 20 -39 0 -20 -48 -53 -70
-47 -14 4 -20 0 -20 -11 0 -9 8 -16 17 -16 13 0 14 -3 5 -12 -9 -9 -18 -9 -37
0 -13 6 -32 9 -41 5 -12 -4 -15 0 -12 18 2 15 12 26 28 30 14 4 18 7 8 8 -12
1 -17 13 -20 57 -3 58 10 80 35 55 19 -19 44 -12 51 14 7 28 31 34 40 10 8
-21 22 -19 47 6 25 25 52 11 30 -15z m-225 -104 c-12 -11 -15 5 -8 44 l7 39 3
-39 c2 -21 1 -41 -2 -44z"/>
<path d="M3680 3120 c0 -5 9 -10 20 -10 11 0 20 5 20 10 0 6 -9 10 -20 10 -11
0 -20 -4 -20 -10z"/>
<path d="M4000 120 c0 -12 -7 -20 -17 -20 -9 0 -14 -3 -10 -6 12 -12 47 8 47
27 0 10 -4 19 -10 19 -5 0 -10 -9 -10 -20z"/>
<path d="M4508 6413 c7 -3 16 -2 19 1 4 3 -2 6 -13 5 -11 0 -14 -3 -6 -6z"/>
<path d="M4465 6399 c-4 -6 -5 -12 -2 -15 2 -3 7 2 10 11 7 17 1 20 -8 4z"/>
<path d="M4500 6360 c0 -5 5 -10 10 -10 6 0 10 5 10 10 0 6 -4 10 -10 10 -5 0
-10 -4 -10 -10z"/>
<path d="M4470 6320 c12 -8 11 -10 -7 -10 -14 0 -23 -6 -23 -15 0 -8 -5 -15
-12 -15 -6 0 -9 -3 -5 -6 9 -9 68 36 62 47 -4 5 -12 9 -18 9 -7 0 -6 -4 3 -10z"/>
<path d="M4508 6253 c7 -3 16 -2 19 1 4 3 -2 6 -13 5 -11 0 -14 -3 -6 -6z"/>
<path d="M4646 6189 c-30 -8 -48 -27 -40 -41 9 -14 32 -8 60 15 31 27 23 38
-20 26z"/>
<path d="M4095 6110 c-3 -5 -1 -10 4 -10 6 0 11 5 11 10 0 6 -2 10 -4 10 -3 0
-8 -4 -11 -10z"/>
<path d="M4208 6113 c7 -3 16 -2 19 1 4 3 -2 6 -13 5 -11 0 -14 -3 -6 -6z"/>
<path d="M3191 6094 c0 -11 3 -14 6 -6 3 7 2 16 -1 19 -3 4 -6 -2 -5 -13z"/>
<path d="M3280 6095 c0 -8 2 -15 4 -15 2 0 6 7 10 15 3 8 1 15 -4 15 -6 0 -10
-7 -10 -15z"/>
<path d="M3160 6080 c0 -5 5 -10 11 -10 5 0 7 5 4 10 -3 6 -8 10 -11 10 -2 0
-4 -4 -4 -10z"/>
<path d="M3228 6063 c7 -3 16 -2 19 1 4 3 -2 6 -13 5 -11 0 -14 -3 -6 -6z"/>
<path d="M3125 6050 c-3 -6 1 -7 9 -4 18 7 21 14 7 14 -6 0 -13 -4 -16 -10z"/>
<path d="M3061 6030 c-13 -11 -19 -20 -14 -20 6 0 18 9 28 20 23 25 17 25 -14
0z"/>
<path d="M4590 6006 c0 -2 8 -10 18 -17 15 -13 16 -12 3 4 -13 16 -21 21 -21
13z"/>
<path d="M2997 5963 c-4 -3 -7 -11 -7 -17 0 -6 5 -5 12 2 6 6 9 14 7 17 -3 3
-9 2 -12 -2z"/>
<path d="M4895 5940 c3 -5 18 -10 33 -9 24 0 25 1 7 9 -28 12 -47 12 -40 0z"/>
<path d="M2940 5921 c-18 -5 -21 -9 -11 -15 8 -5 19 -2 29 8 9 9 14 16 12 15
-3 -1 -16 -4 -30 -8z"/>
<path d="M4984 5889 c-9 -15 41 -60 59 -53 12 4 37 45 37 59 0 10 -89 4 -96
-6z"/>
<path d="M2450 5830 c-8 -5 -10 -10 -5 -10 6 0 17 5 25 10 8 5 11 10 5 10 -5
0 -17 -5 -25 -10z"/>
<path d="M5020 5754 c0 -11 29 -34 42 -34 8 0 20 -6 28 -12 12 -11 12 -10 1 4
-13 17 -71 51 -71 42z"/>
<path d="M5076 5615 c4 -8 11 -15 16 -15 6 0 5 6 -2 15 -7 8 -14 15 -16 15 -2
0 -1 -7 2 -15z"/>
<path d="M5160 5496 c0 -2 7 -7 16 -10 8 -3 12 -2 9 4 -6 10 -25 14 -25 6z"/>
<path d="M2090 5430 c0 -5 5 -10 10 -10 6 0 10 5 10 10 0 6 -4 10 -10 10 -5 0
-10 -4 -10 -10z"/>
<path d="M3228 5063 c6 -2 18 -2 25 0 6 3 1 5 -13 5 -14 0 -19 -2 -12 -5z"/>
<path d="M1858 4653 c7 -3 16 -2 19 1 4 3 -2 6 -13 5 -11 0 -14 -3 -6 -6z"/>
<path d="M3691 4564 c0 -11 3 -14 6 -6 3 7 2 16 -1 19 -3 4 -6 -2 -5 -13z"/>
<path d="M3741 4564 c0 -11 3 -14 6 -6 3 7 2 16 -1 19 -3 4 -6 -2 -5 -13z"/>
<path d="M2660 4220 c0 -5 5 -10 10 -10 6 0 10 5 10 10 0 6 -4 10 -10 10 -5 0
-10 -4 -10 -10z"/>
<path d="M2871 4064 c0 -11 3 -14 6 -6 3 7 2 16 -1 19 -3 4 -6 -2 -5 -13z"/>
<path d="M2850 4021 c0 -12 5 -21 10 -21 6 0 10 6 10 14 0 8 -4 18 -10 21 -5
3 -10 -3 -10 -14z"/>
<path d="M3027 3950 c-3 -11 -1 -23 4 -26 5 -3 9 6 9 20 0 31 -6 34 -13 6z"/>
<path d="M2941 3621 c-10 -6 -10 -10 -1 -16 13 -8 24 -1 19 14 -3 6 -10 7 -18
2z"/>
<path d="M0 3196 c0 -196 2 -356 4 -356 2 0 20 7 39 15 44 18 65 11 69 -23 2
-19 10 -28 26 -30 13 -2 22 2 22 10 0 17 82 66 116 70 23 3 29 -2 36 -29 8
-32 64 -79 172 -146 45 -28 46 -30 44 -78 0 -34 -5 -49 -14 -49 -26 0 -14 -18
17 -24 29 -6 88 15 90 32 1 4 3 45 5 91 2 69 7 90 29 122 17 27 33 39 49 39
13 0 29 7 37 16 8 10 23 14 42 11 21 -3 32 2 43 18 12 19 12 26 -2 53 -8 18
-14 42 -12 54 3 21 8 23 55 21 33 -2 69 -11 95 -25 24 -13 69 -32 101 -42 31
-11 57 -23 57 -28 0 -5 11 -14 25 -20 14 -6 28 -22 31 -35 8 -29 52 -53 102
-55 20 0 43 -6 50 -11 8 -6 29 -10 47 -9 28 2 37 -3 51 -28 10 -16 22 -30 26
-30 5 0 13 -11 18 -24 5 -14 20 -26 37 -30 15 -4 49 -18 76 -32 54 -28 148
-47 222 -45 227 6 226 6 236 -12 6 -9 18 -17 28 -17 15 0 19 -11 24 -61 3 -37
1 -69 -5 -79 -6 -10 -38 -25 -70 -34 -33 -9 -56 -21 -53 -26 3 -6 13 -10 21
-10 8 0 27 -8 42 -18 15 -10 47 -32 72 -49 60 -40 94 -48 115 -26 23 22 37 63
30 82 -4 9 -11 39 -16 66 -6 28 -14 68 -19 90 -5 22 -13 60 -19 85 -6 25 -22
83 -36 130 -34 112 -34 112 -46 205 -6 44 -14 82 -18 85 -4 3 -4 37 -1 75 8
89 7 231 -2 240 -4 4 -29 12 -55 17 -132 25 -863 100 -938 96 -49 -3 -50 -4
-47 -32 3 -20 0 -26 -9 -21 -8 5 -10 4 -5 -4 4 -6 3 -17 -2 -24 -5 -7 -12 -29
-16 -49 -6 -32 -14 -41 -56 -64 -28 -15 -50 -31 -50 -36 0 -4 -13 -8 -30 -8
-16 0 -30 5 -30 10 0 6 -10 10 -21 10 -12 0 -40 19 -63 41 -22 23 -55 48 -73
55 -44 19 -112 18 -119 -1 -4 -9 -19 -15 -40 -15 -42 0 -64 30 -76 107 -5 30
-15 67 -23 82 -14 27 -16 28 -162 40 -81 6 -176 14 -210 17 l-63 6 0 -356z"/>
<path d="M2560 3464 c8 -4 18 -11 21 -17 4 -6 13 -5 25 2 14 8 15 11 4 11 -8
0 -26 3 -40 5 -14 3 -18 2 -10 -1z"/>
<path d="M2552 3420 c0 -14 2 -19 5 -12 2 6 2 18 0 25 -3 6 -5 1 -5 -13z"/>
<path d="M2440 3320 c-12 -8 -9 -10 12 -10 15 0 30 5 33 10 8 13 -25 13 -45 0z"/>
<path d="M2665 3130 c-4 -6 -10 -8 -15 -5 -5 3 -15 -3 -22 -13 -7 -10 -29 -27
-48 -38 -19 -10 -38 -23 -41 -27 -3 -4 -19 -12 -35 -17 -28 -8 -28 -8 -4 -9
l25 -2 -24 -19 c-24 -21 -57 -28 -46 -10 9 14 -13 13 -29 -2 -13 -13 -10 -58
5 -58 5 0 9 -7 9 -15 0 -8 -4 -15 -10 -15 -5 0 -10 -9 -10 -19 0 -25 -35 -107
-49 -115 -16 -10 -13 -37 6 -58 15 -17 15 -19 -1 -37 -11 -12 -14 -21 -7 -26
6 -3 11 -15 11 -26 0 -10 3 -19 8 -19 12 0 39 -60 53 -118 14 -58 29 -56 31 4
0 21 7 48 15 59 7 11 13 31 13 46 0 15 7 32 15 39 13 11 18 10 31 -6 13 -18
14 -16 12 26 -2 44 -2 45 26 45 31 0 47 21 23 31 -12 4 -12 10 2 40 8 18 19
34 24 34 4 0 5 16 1 36 -5 27 -4 35 5 30 7 -5 11 5 11 30 0 31 2 35 15 24 13
-11 15 -8 16 16 1 36 7 92 14 121 6 26 -5 83 -16 83 -4 0 -11 -5 -14 -10z
m-200 -180 c3 -5 1 -10 -4 -10 -6 0 -11 5 -11 10 0 6 2 10 4 10 3 0 8 -4 11
-10z"/>
<path d="M2711 3124 c0 -11 3 -14 6 -6 3 7 2 16 -1 19 -3 4 -6 -2 -5 -13z"/>
<path d="M2350 2831 c0 -10 30 -24 37 -17 3 3 2 9 -2 15 -8 13 -35 15 -35 2z"/>
<path d="M2675 2820 c-3 -5 1 -10 9 -10 9 0 16 5 16 10 0 6 -4 10 -9 10 -6 0
-13 -4 -16 -10z"/>
<path d="M40 2725 c0 -8 5 -15 10 -15 6 0 10 7 10 15 0 8 -4 15 -10 15 -5 0
-10 -7 -10 -15z"/>
<path d="M1130 2730 c-8 -5 -25 -10 -36 -10 -26 0 -90 -68 -111 -117 -8 -19
-17 -33 -20 -30 -8 9 -73 -119 -73 -145 0 -25 56 -88 78 -88 6 0 31 -8 54 -19
54 -24 109 -41 131 -41 9 0 26 13 38 30 19 25 68 48 91 42 4 -1 31 4 60 12
l53 13 3 44 c2 35 -5 60 -35 119 -36 70 -40 75 -85 87 -33 9 -53 22 -65 41
-20 33 -54 72 -62 72 -3 0 -13 -5 -21 -10z"/>
<path d="M2650 2694 c0 -8 5 -12 10 -9 6 3 10 10 10 16 0 5 -4 9 -10 9 -5 0
-10 -7 -10 -16z"/>
<path d="M66 2675 c-3 -8 -1 -15 4 -15 6 0 10 7 10 15 0 8 -2 15 -4 15 -2 0
-6 -7 -10 -15z"/>
<path d="M2230 2676 c0 -9 5 -16 10 -16 6 0 10 4 10 9 0 6 -4 13 -10 16 -5 3
-10 -1 -10 -9z"/>
<path d="M326 2512 c-3 -5 1 -18 9 -28 13 -16 16 -17 25 -4 5 8 8 20 7 25 -5
13 -34 18 -41 7z"/>
<path d="M1631 2336 c-15 -18 -88 -36 -146 -36 -36 0 -46 -3 -42 -14 3 -7 1
-18 -5 -24 -6 -6 -14 -30 -18 -54 -5 -23 -12 -51 -16 -61 -6 -17 -2 -18 41
-16 l48 3 -1 -74 c0 -44 -5 -76 -11 -78 -6 -2 -9 -8 -5 -13 3 -5 -6 -9 -19 -9
-42 0 -77 61 -69 123 4 32 1 37 -15 37 -19 0 -33 -12 -87 -72 -17 -19 -30 -25
-45 -21 -14 4 -21 1 -21 -9 0 -9 -18 -36 -40 -61 -53 -60 -53 -86 3 -114 23
-11 64 -24 91 -27 29 -4 69 -18 95 -35 31 -19 64 -30 103 -34 32 -3 73 -11 92
-18 30 -11 43 -9 101 10 50 16 79 20 116 15 40 -5 50 -4 55 10 3 9 15 16 25
16 17 0 18 6 13 63 -5 57 -3 65 23 99 15 21 34 37 41 38 16 0 15 16 -3 76 -19
62 -61 86 -127 73 -76 -15 -102 -11 -135 20 -55 50 -52 141 5 166 28 12 28 21
0 29 -32 8 -34 8 -47 -8z"/>
<path d="M2665 2310 c3 -5 10 -10 16 -10 5 0 9 5 9 10 0 6 -7 10 -16 10 -8 0
-12 -4 -9 -10z"/>
<path d="M2618 2303 c-30 -8 -21 -32 10 -29 15 2 27 9 27 16 0 15 -12 20 -37
13z"/>
<path d="M2545 2290 c-3 -5 -1 -10 4 -10 6 0 11 5 11 10 0 6 -2 10 -4 10 -3 0
-8 -4 -11 -10z"/>
<path d="M2646 2193 c-9 -10 -7 -55 3 -49 12 8 21 45 11 51 -4 2 -10 2 -14 -2z"/>
<path d="M1053 2123 c-23 -9 -15 -35 10 -31 12 2 22 9 22 17 0 16 -14 22 -32
14z"/>
<path d="M2845 2109 c-10 -15 3 -25 16 -12 7 7 7 13 1 17 -6 3 -14 1 -17 -5z"/>
<path d="M2797 1970 c6 -24 26 -21 31 3 2 11 -3 17 -16 17 -15 0 -19 -5 -15
-20z"/>
<path d="M2946 1923 c-11 -11 -6 -23 9 -23 8 0 15 4 15 9 0 13 -16 22 -24 14z"/>
<path d="M2070 1870 c-11 -7 -7 -10 18 -10 20 0 31 4 27 10 -8 13 -26 13 -45
0z"/>
<path d="M2375 1815 c-21 -17 -25 -24 -14 -25 9 0 29 11 45 25 38 33 9 33 -31
0z"/>
<path d="M2952 1705 c-7 -15 -8 -25 -2 -25 6 0 10 6 10 14 0 8 5 16 12 18 8 3
9 6 1 11 -5 3 -15 -5 -21 -18z"/>
<path d="M2988 1693 c7 -3 16 -2 19 1 4 3 -2 6 -13 5 -11 0 -14 -3 -6 -6z"/>
<path d="M1880 1635 c0 -8 5 -15 10 -15 6 0 10 7 10 15 0 8 -4 15 -10 15 -5 0
-10 -7 -10 -15z"/>
<path d="M408 1629 c-10 -5 -18 -17 -18 -24 0 -18 -1 -18 38 -4 27 9 30 13 18
25 -17 16 -16 16 -38 3z"/>
<path d="M1845 1587 c-11 -6 -69 -12 -128 -13 -81 -2 -115 -7 -133 -19 -14 -9
-40 -15 -57 -14 -53 3 -65 0 -72 -20 -3 -10 -17 -22 -30 -25 -24 -6 -37 -36
-59 -137 -3 -15 -20 -42 -38 -60 -41 -44 -88 -118 -88 -139 0 -21 -37 -55 -73
-69 -21 -8 -47 -8 -94 1 -75 14 -125 42 -133 77 -4 17 -17 28 -45 38 -22 7
-51 24 -65 38 -14 13 -37 27 -52 30 -37 9 -50 28 -41 56 12 35 10 92 -3 96 -6
2 -15 -11 -20 -29 -7 -23 -21 -39 -48 -53 -21 -11 -42 -29 -48 -40 -6 -11 -17
-23 -24 -28 -7 -4 -20 -27 -30 -52 -16 -42 -16 -47 0 -63 10 -12 26 -17 44
-14 19 2 29 -1 29 -10 0 -7 3 -23 7 -35 5 -17 1 -24 -24 -34 -35 -16 -35 -15
-15 -62 8 -20 15 -48 15 -61 0 -21 6 -26 34 -31 46 -9 73 8 93 56 10 27 21 39
32 37 9 -2 16 -8 17 -13 3 -35 131 -175 160 -175 7 0 16 -9 19 -20 8 -26 13
-25 58 6 41 28 68 27 113 -3 27 -17 30 -38 12 -80 -29 -69 -72 -82 -120 -36
-15 14 -31 24 -34 20 -4 -4 -7 -53 -8 -109 -1 -79 3 -112 17 -142 l17 -40 38
37 c22 21 52 39 72 43 19 4 40 10 45 15 6 4 27 4 48 0 38 -9 87 -57 98 -95 8
-30 -7 -76 -35 -111 -23 -29 -27 -30 -100 -28 -100 2 -149 24 -156 72 -7 45
-21 48 -48 11 -25 -34 -22 -51 8 -43 13 4 22 -1 27 -13 4 -11 12 -24 19 -31 8
-9 9 -25 1 -63 -8 -40 -7 -58 6 -88 8 -20 20 -51 27 -69 13 -34 37 -50 54 -33
7 7 6 14 -2 22 -27 27 -14 54 40 79 72 34 126 31 213 -11 58 -28 80 -33 127
-31 l56 2 18 -40 18 -41 265 1 c162 1 252 4 231 9 -19 5 -36 13 -38 19 -2 6
-9 11 -16 11 -7 0 -21 9 -31 20 -11 12 -31 20 -49 20 -25 0 -36 8 -54 36 -23
36 -25 36 -73 31 -28 -4 -49 -2 -49 3 0 6 -20 10 -45 10 -34 0 -52 6 -77 28
-18 16 -45 39 -60 52 -39 33 -39 96 1 127 24 19 35 21 82 14 49 -6 60 -13 110
-64 31 -31 59 -64 63 -73 5 -13 9 -14 21 -4 8 6 19 9 25 5 5 -3 35 17 65 45
l54 52 -6 63 c-5 59 -4 65 19 87 14 13 46 29 72 37 50 15 56 27 31 75 -19 35
-10 72 21 93 37 24 31 43 -9 32 -41 -11 -85 -8 -97 6 -4 5 -10 21 -12 34 -4
29 -35 52 -46 35 -4 -6 -23 -17 -42 -24 -29 -10 -41 -10 -71 3 -30 12 -39 24
-58 74 -19 52 -28 62 -67 81 -26 13 -53 36 -65 56 -20 34 -42 46 -91 46 -17 0
-29 -7 -32 -17 -4 -10 -26 -40 -51 -66 -37 -41 -47 -47 -63 -38 -40 21 -54 58
-47 124 8 82 19 107 82 203 34 52 66 88 88 100 19 10 35 22 35 26 0 18 82 49
111 43 24 -6 34 -1 58 24 22 24 38 31 66 31 41 0 40 -8 18 92 -7 33 -10 36
-28 25z m-1097 -365 l27 -11 -30 2 c-26 2 -30 6 -32 32 0 17 1 21 3 9 3 -11
17 -25 32 -32z"/>
<path d="M0 1240 c0 -55 3 -100 7 -100 3 0 15 8 25 17 17 15 26 15 81 4 34 -7
76 -17 93 -23 56 -20 64 -9 45 61 -9 34 -21 61 -28 61 -7 0 -13 9 -13 19 0 16
-7 19 -32 19 -18 -1 -51 6 -73 14 -22 9 -55 18 -72 21 l-33 7 0 -100z"/>
<path d="M2188 1303 c-17 -19 -21 -70 -7 -79 15 -9 10 -34 -6 -34 -8 0 -15 -4
-15 -10 0 -5 19 -10 43 -9 34 1 37 2 17 8 -16 4 -21 9 -13 14 16 10 64 -3 57
-14 -6 -11 46 -1 59 11 10 9 -2 60 -14 60 -5 0 -9 7 -9 15 0 8 -6 15 -14 15
-8 0 -30 9 -49 20 -32 19 -35 19 -49 3z"/>
<path d="M3087 1256 c-3 -7 -16 -12 -31 -11 -20 3 -27 -3 -35 -28 -8 -21 -8
-34 -1 -41 5 -5 10 -19 11 -30 0 -12 3 -15 6 -8 8 21 53 14 62 -10 12 -32 -14
-81 -38 -73 -22 7 -46 -34 -38 -65 3 -13 -3 -31 -19 -49 -29 -35 -31 -74 -5
-98 13 -13 18 -26 14 -45 -5 -29 -17 -36 -28 -18 -9 15 -25 12 -25 -5 0 -9 9
-15 24 -15 14 0 30 -10 40 -25 16 -24 15 -27 -5 -54 -19 -26 -23 -27 -62 -19
-81 18 -99 16 -117 -17 -18 -33 -60 -47 -60 -21 0 15 -58 46 -86 46 -7 0 -38
11 -68 25 -30 14 -61 25 -69 25 -8 0 -22 11 -31 24 -24 38 -65 76 -81 76 -17
0 -9 -31 12 -43 7 -4 13 -15 13 -22 0 -8 4 -15 9 -15 6 0 8 -22 6 -49 -4 -43
-2 -49 16 -54 12 -3 18 -10 14 -16 -3 -6 16 -31 42 -56 101 -94 113 -107 107
-116 -3 -5 7 -9 22 -9 19 0 38 12 64 40 28 30 50 43 95 55 33 8 70 15 84 15
14 0 84 14 156 31 137 34 183 58 184 96 1 13 10 46 21 75 13 34 16 56 10 62
-6 6 -10 18 -10 27 0 10 -6 30 -14 46 -26 52 -35 78 -41 120 -5 33 -11 42 -31
47 -14 4 -22 10 -20 15 3 5 -1 14 -9 21 -8 7 -15 18 -15 25 0 7 -8 16 -17 20
-17 6 -17 8 2 21 12 9 16 18 10 22 -6 4 -10 13 -11 20 -1 6 -2 18 -2 26 -1 7
-11 16 -23 19 -12 3 -18 10 -14 16 3 6 2 11 -3 11 -6 0 -12 -6 -15 -14z"/>
<path d="M340 1027 c0 -15 -18 -38 -50 -67 -27 -24 -50 -51 -50 -60 0 -26 54
-70 92 -76 27 -5 40 -1 63 19 29 24 29 24 16 81 -7 31 -17 56 -22 56 -6 0 -17
16 -25 35 -17 41 -24 44 -24 12z"/>
<path d="M2704 1012 c4 -7 12 -12 17 -12 5 0 23 -16 40 -35 24 -27 39 -35 65
-35 46 0 44 23 -3 54 -41 27 -132 48 -119 28z"/>
<path d="M672 702 c-49 -52 -53 -60 -48 -93 7 -46 -20 -127 -56 -167 -14 -16
-31 -39 -37 -51 -14 -26 -51 -27 -81 -3 -19 16 -23 30 -26 91 -1 41 -7 78 -13
84 -7 7 -23 5 -53 -6 -60 -23 -95 -21 -151 9 -26 14 -56 23 -65 20 -9 -3 -41
6 -70 19 -30 14 -58 22 -63 19 -5 -3 -9 -32 -9 -65 0 -52 2 -59 20 -59 30 0
68 -20 150 -78 93 -66 130 -106 130 -138 0 -14 12 -36 27 -50 24 -22 33 -25
72 -19 24 4 54 11 66 17 17 7 30 6 53 -6 17 -9 40 -16 52 -16 13 0 24 -10 31
-27 10 -26 -1 -76 -36 -166 -7 -16 4 -17 133 -17 l141 0 -6 38 c-3 20 -10 46
-16 56 -26 51 5 153 59 195 15 12 25 23 23 24 -2 2 -16 8 -30 14 -15 7 -35 30
-48 55 -21 45 -22 95 -5 236 8 63 -6 102 -45 125 -16 9 -33 17 -38 17 -4 0
-32 -26 -61 -58z"/>
<path d="M3305 623 c-11 -3 -26 -10 -33 -16 -11 -9 -10 -12 7 -19 12 -4 29 -5
39 -2 9 3 6 -2 -8 -10 -16 -10 -50 -15 -94 -16 -75 0 -160 -17 -331 -66 -50
-14 -56 -18 -38 -25 12 -4 29 -19 38 -33 13 -20 14 -29 4 -48 -21 -42 -41 -58
-63 -52 -14 3 -32 -3 -50 -17 -16 -12 -58 -37 -95 -54 -46 -23 -87 -54 -136
-104 -63 -64 -115 -134 -115 -153 0 -5 270 -8 600 -8 330 0 600 3 600 6 0 10
-71 177 -96 226 -13 27 -24 56 -24 67 0 10 -6 24 -14 30 -8 7 -17 28 -21 49
-4 20 -15 56 -26 79 -10 23 -19 46 -19 51 0 5 -9 17 -20 27 -11 10 -23 36 -26
57 -6 33 -10 38 -33 37 -14 -1 -35 -4 -46 -6z"/>
<path d="M3735 390 c3 -5 10 -10 16 -10 5 0 9 5 9 10 0 6 -7 10 -16 10 -8 0
-12 -4 -9 -10z"/>
<path d="M3635 310 c3 -5 13 -10 21 -10 8 0 14 5 14 10 0 6 -9 10 -21 10 -11
0 -17 -4 -14 -10z"/>
<path d="M189 133 c-16 -7 -29 -17 -29 -23 0 -5 -7 -10 -15 -10 -9 0 -15 -9
-15 -25 0 -14 -5 -25 -10 -25 -6 0 -8 10 -4 23 6 25 0 29 -83 56 l-33 10 0
-70 0 -69 135 0 135 0 0 43 c0 26 8 51 20 67 11 14 20 28 20 31 0 10 -92 4
-121 -8z"/>
<path d="M2380 103 c-19 -20 -47 -52 -63 -70 l-29 -33 51 0 c50 0 50 0 57 37
4 21 13 50 20 65 27 52 10 52 -36 1z"/>
</g>
</svg>
